<svg width="30" height="24" viewBox="0 0 30 24" fill="none" xmlns="http://www.w3.org/2000/svg">
<path fill-rule="evenodd" clip-rule="evenodd" d="M29.1684 6.33315C29.1684 3.20388 26.631 0.666748 23.5015 0.666748C18.7838 0.666748 11.2171 0.666748 6.50086 0.666748C3.37133 0.666748 0.833984 3.20388 0.833984 6.33315V17.666C0.833984 20.7952 3.37133 23.3324 6.50086 23.3324H23.5015C26.631 23.3324 29.1684 20.7952 29.1684 17.666V6.33315ZM26.3349 17.666H3.66742C3.66742 19.2313 4.93538 20.4992 6.50086 20.4992H23.5015C25.0655 20.4992 26.3349 19.2313 26.3349 17.666ZM3.66742 13.4162V14.8328H26.3349V13.4162H3.66742ZM26.3349 10.583V6.33315C26.3349 4.76922 25.0655 3.49995 23.5015 3.49995C18.7838 3.49995 11.2171 3.49995 6.50086 3.49995C4.93538 3.49995 3.66742 4.76922 3.66742 6.33315V10.583H26.3349Z"/>
</svg>
