<svg width="34" height="34" viewBox="0 0 34 34" fill="none" xmlns="http://www.w3.org/2000/svg">
<rect x="0.5" y="0.5" width="33" height="33" stroke="#00193B"/>
<path d="M26.916 1.41675H7.08268C5.57979 1.41675 4.13845 2.01377 3.07574 3.07648C2.01304 4.13918 1.41602 5.58052 1.41602 7.08341V17.0001C1.41602 17.3758 1.56527 17.7361 1.83095 18.0018C2.09662 18.2675 2.45696 18.4167 2.83268 18.4167H9.91602V31.1667C9.91535 31.4377 9.9924 31.7032 10.138 31.9317C10.2837 32.1602 10.4918 32.3421 10.7377 32.4559C10.9842 32.5694 11.2581 32.6097 11.5268 32.572C11.7955 32.5343 12.0477 32.4203 12.2535 32.2434L16.291 28.7867L20.3285 32.2434C20.5851 32.4629 20.9117 32.5835 21.2494 32.5835C21.587 32.5835 21.9136 32.4629 22.1702 32.2434L26.2077 28.7867L30.2452 32.2434C30.5018 32.4629 30.8284 32.5834 31.166 32.5834C31.371 32.582 31.5735 32.5386 31.761 32.4559C32.0069 32.3421 32.215 32.1602 32.3607 31.9317C32.5063 31.7032 32.5834 31.4377 32.5827 31.1667V7.08341C32.5827 5.58052 31.9857 4.13918 30.923 3.07648C29.8603 2.01377 28.4189 1.41675 26.916 1.41675ZM4.24935 15.5834V7.08341C4.24935 6.33197 4.54786 5.6113 5.07921 5.07994C5.61057 4.54859 6.33124 4.25008 7.08268 4.25008C7.83413 4.25008 8.5548 4.54859 9.08615 5.07994C9.61751 5.6113 9.91602 6.33197 9.91602 7.08341V15.5834H4.24935ZM29.7494 28.0926L27.1285 25.8401C26.8719 25.6206 26.5454 25.5 26.2077 25.5C25.87 25.5 25.5435 25.6206 25.2869 25.8401L21.2494 29.2967L17.2119 25.8401C16.9552 25.6206 16.6287 25.5 16.291 25.5C15.9534 25.5 15.6268 25.6206 15.3702 25.8401L12.7494 28.0926V7.08341C12.7476 6.08818 12.4837 5.11096 11.9844 4.25008H26.916C27.6675 4.25008 28.3881 4.54859 28.9195 5.07994C29.4508 5.6113 29.7494 6.33197 29.7494 7.08341V28.0926ZM26.916 8.50008C26.916 8.8758 26.7668 9.23614 26.5011 9.50181C26.2354 9.76749 25.8751 9.91675 25.4994 9.91675H16.9994C16.6236 9.91675 16.2633 9.76749 15.9976 9.50181C15.7319 9.23614 15.5827 8.8758 15.5827 8.50008C15.5827 8.12436 15.7319 7.76402 15.9976 7.49835C16.2633 7.23267 16.6236 7.08341 16.9994 7.08341H25.4994C25.8751 7.08341 26.2354 7.23267 26.5011 7.49835C26.7668 7.76402 26.916 8.12436 26.916 8.50008ZM26.916 14.1667C26.916 14.5425 26.7668 14.9028 26.5011 15.1685C26.2354 15.4342 25.8751 15.5834 25.4994 15.5834H16.9994C16.6236 15.5834 16.2633 15.4342 15.9976 15.1685C15.7319 14.9028 15.5827 14.5425 15.5827 14.1667C15.5827 13.791 15.7319 13.4307 15.9976 13.165C16.2633 12.8993 16.6236 12.7501 16.9994 12.7501H25.4994C25.8751 12.7501 26.2354 12.8993 26.5011 13.165C26.7668 13.4307 26.916 13.791 26.916 14.1667ZM26.916 19.8334C26.916 20.2091 26.7668 20.5695 26.5011 20.8351C26.2354 21.1008 25.8751 21.2501 25.4994 21.2501H16.9994C16.6236 21.2501 16.2633 21.1008 15.9976 20.8351C15.7319 20.5695 15.5827 20.2091 15.5827 19.8334C15.5827 19.4577 15.7319 19.0974 15.9976 18.8317C16.2633 18.566 16.6236 18.4167 16.9994 18.4167H25.4994C25.8751 18.4167 26.2354 18.566 26.5011 18.8317C26.7668 19.0974 26.916 19.4577 26.916 19.8334Z"/>
</svg>
