<svg width="35" height="35" viewBox="0 0 35 35" fill="none" xmlns="http://www.w3.org/2000/svg">
<path d="M30.7503 15.8439V9.91659C30.7503 9.54086 30.6011 9.18053 30.3354 8.91485C30.0697 8.64917 29.7094 8.49992 29.3337 8.49992H6.66699C6.29127 8.49992 5.93093 8.35066 5.66526 8.08499C5.39958 7.81931 5.25033 7.45898 5.25033 7.08325C5.25033 6.70753 5.39958 6.34719 5.66526 6.08152C5.93093 5.81584 6.29127 5.66659 6.66699 5.66659H29.3337C29.7094 5.66659 30.0697 5.51733 30.3354 5.25165C30.6011 4.98598 30.7503 4.62564 30.7503 4.24992C30.7503 3.8742 30.6011 3.51386 30.3354 3.24818C30.0697 2.98251 29.7094 2.83325 29.3337 2.83325H6.66699C5.53982 2.83325 4.45882 3.28102 3.66179 4.07805C2.86476 4.87508 2.41699 5.95608 2.41699 7.08325V26.9166C2.41699 28.0438 2.86476 29.1248 3.66179 29.9218C4.45882 30.7188 5.53982 31.1666 6.66699 31.1666H29.3337C29.7094 31.1666 30.0697 31.0173 30.3354 30.7517C30.6011 30.486 30.7503 30.1256 30.7503 29.7499V23.8226C31.5784 23.5341 32.2962 22.995 32.8042 22.2802C33.3121 21.5654 33.585 20.7102 33.585 19.8333C33.585 18.9563 33.3121 18.1011 32.8042 17.3863C32.2962 16.6715 31.5784 16.1324 30.7503 15.8439ZM27.917 28.3333H6.66699C6.29127 28.3333 5.93093 28.184 5.66526 27.9183C5.39958 27.6526 5.25033 27.2923 5.25033 26.9166V11.0726C5.70402 11.2404 6.18329 11.3286 6.66699 11.3333H27.917V15.5833H23.667C22.5398 15.5833 21.4588 16.031 20.6618 16.828C19.8648 17.6251 19.417 18.7061 19.417 19.8333C19.417 20.9604 19.8648 22.0414 20.6618 22.8385C21.4588 23.6355 22.5398 24.0833 23.667 24.0833H27.917V28.3333ZM29.3337 21.2499H23.667C23.2913 21.2499 22.9309 21.1007 22.6653 20.835C22.3996 20.5693 22.2503 20.209 22.2503 19.8333C22.2503 19.4575 22.3996 19.0972 22.6653 18.8315C22.9309 18.5658 23.2913 18.4166 23.667 18.4166H29.3337C29.7094 18.4166 30.0697 18.5658 30.3354 18.8315C30.6011 19.0972 30.7503 19.4575 30.7503 19.8333C30.7503 20.209 30.6011 20.5693 30.3354 20.835C30.0697 21.1007 29.7094 21.2499 29.3337 21.2499Z" fill="white"/>
</svg>
