<svg width="15" height="9" viewBox="0 0 15 9" fill="none" xmlns="http://www.w3.org/2000/svg">
<path d="M7.82739 6.4399L13.0564 1.2489C13.2424 1.06399 13.494 0.960205 13.7563 0.960205C14.0187 0.960205 14.2704 1.06399 14.4564 1.2489C14.5481 1.33965 14.6208 1.44767 14.6704 1.5667C14.7201 1.68574 14.7456 1.81343 14.7456 1.9424C14.7456 2.07137 14.7201 2.19907 14.6704 2.3181C14.6208 2.43713 14.5481 2.54515 14.4564 2.6359L8.52832 8.5209C8.34227 8.70581 8.09067 8.80959 7.82837 8.80959C7.56606 8.80959 7.31446 8.70581 7.12842 8.5209L1.20032 2.6359C1.10868 2.54515 1.03597 2.43713 0.986328 2.3181C0.936681 2.19907 0.911133 2.07137 0.911133 1.9424C0.911133 1.81343 0.936681 1.68574 0.986328 1.5667C1.03597 1.44767 1.10868 1.33965 1.20032 1.2489C1.38636 1.06399 1.63809 0.960205 1.90039 0.960205C2.1627 0.960205 2.4143 1.06399 2.60034 1.2489L7.82739 6.4399Z" fill="#809FB8"/>
</svg>
