<svg width="27" height="26" viewBox="0 0 27 26" fill="none" xmlns="http://www.w3.org/2000/svg">
<path d="M24.6664 11.3334H6.04971L14.183 3.20002C14.833 2.55002 14.833 1.48335 14.183 0.833354C14.0289 0.678848 13.8457 0.556268 13.6441 0.472633C13.4425 0.388997 13.2263 0.345947 13.008 0.345947C12.7898 0.345947 12.5736 0.388997 12.372 0.472633C12.1704 0.556268 11.9872 0.678848 11.833 0.833354L0.849712 11.8167C0.695206 11.9709 0.572627 12.154 0.488991 12.3556C0.405355 12.5573 0.362305 12.7734 0.362305 12.9917C0.362305 13.21 0.405355 13.4261 0.488991 13.6277C0.572627 13.8293 0.695206 14.0125 0.849712 14.1667L11.833 25.15C11.9873 25.3043 12.1705 25.4267 12.3721 25.5102C12.5737 25.5937 12.7898 25.6367 13.008 25.6367C13.2263 25.6367 13.4423 25.5937 13.644 25.5102C13.8456 25.4267 14.0287 25.3043 14.183 25.15C14.3373 24.9957 14.4597 24.8125 14.5433 24.6109C14.6268 24.4093 14.6697 24.1932 14.6697 23.975C14.6697 23.7568 14.6268 23.5407 14.5433 23.3391C14.4597 23.1375 14.3373 22.9543 14.183 22.8L6.04971 14.6667H24.6664C25.583 14.6667 26.333 13.9167 26.333 13C26.333 12.0834 25.583 11.3334 24.6664 11.3334Z" fill="white"/>
</svg>
