<svg width="21" height="21" viewBox="0 0 21 21" fill="none" xmlns="http://www.w3.org/2000/svg">
<path d="M19.1847 20.5999L14.6736 16.0889C12.9788 17.4247 10.8378 18.0625 8.68825 17.8719C6.53875 17.6813 4.5432 16.6766 3.10988 15.0635C1.67656 13.4503 0.913702 11.3505 0.977314 9.19352C1.04093 7.03652 1.92628 4.98532 3.45217 3.45943C4.97806 1.93354 7.02918 1.04825 9.18618 0.984638C11.3432 0.921026 13.443 1.6839 15.0562 3.11721C16.6693 4.55053 17.674 6.546 17.8646 8.6955C18.0553 10.845 17.4174 12.9861 16.0817 14.6809L20.5936 19.1929C20.7525 19.3847 20.834 19.6289 20.8223 19.8776C20.8106 20.1263 20.7066 20.3618 20.5305 20.5378C20.3545 20.7139 20.119 20.818 19.8703 20.8296C19.6215 20.8413 19.3775 20.7598 19.1857 20.6009L19.1847 20.5999ZM2.96364 9.44194C2.96354 10.7141 3.33841 11.9581 4.0414 13.0183C4.74439 14.0786 5.74431 14.9081 6.91616 15.4033C8.08801 15.8984 9.37977 16.0371 10.63 15.8021C11.8803 15.5671 13.0336 14.9688 13.9457 14.0819C13.9647 14.0589 13.9856 14.0359 14.0066 14.0149C14.0276 13.9939 14.0506 13.9729 14.0736 13.9539C14.8126 13.1937 15.3535 12.2636 15.6487 11.2453C15.9439 10.227 15.9844 9.15173 15.7666 8.11412C15.5488 7.07652 15.0794 6.10831 14.3997 5.29467C13.7199 4.48103 12.8506 3.84687 11.8683 3.44797C10.886 3.04907 9.8207 2.89764 8.76613 3.007C7.71157 3.11636 6.70001 3.48317 5.82045 4.07515C4.9409 4.66714 4.22027 5.46618 3.72194 6.40199C3.22362 7.3378 2.96292 8.38172 2.96267 9.44194H2.96364Z" fill="#99B2C6"/>
</svg>
