<svg width="33" height="31" viewBox="0 0 33 31" fill="none" xmlns="http://www.w3.org/2000/svg">
<path fill-rule="evenodd" clip-rule="evenodd" d="M22.6982 2.46875V4.93333L25.6149 7.26667V2.46875H22.6982ZM27.8024 9.01667V2.10417C27.8024 1.09792 26.9857 0.28125 25.9795 0.28125H22.3337C21.3274 0.28125 20.5107 1.09792 20.5107 2.10417V3.18333L19.9172 2.70792C18.9474 1.93188 17.7424 1.50908 16.5003 1.50908C15.2583 1.50908 14.0532 1.93188 13.0834 2.70792L1.23449 12.1871C1.00784 12.3683 0.862459 12.6321 0.830324 12.9205C0.798189 13.2089 0.881934 13.4982 1.06314 13.7249C1.24434 13.9515 1.50816 14.0969 1.79656 14.1291C2.08495 14.1612 2.3743 14.0775 2.60095 13.8963L3.73991 12.9833V27.9896H1.91699C1.62691 27.9896 1.34871 28.1048 1.14359 28.3099C0.938476 28.5151 0.823242 28.7933 0.823242 29.0833C0.823242 29.3734 0.938476 29.6516 1.14359 29.8567C1.34871 30.0619 1.62691 30.1771 1.91699 30.1771H31.0837C31.3737 30.1771 31.6519 30.0619 31.8571 29.8567C32.0622 29.6516 32.1774 29.3734 32.1774 29.0833C32.1774 28.7933 32.0622 28.5151 31.8571 28.3099C31.6519 28.1048 31.3737 27.9896 31.0837 27.9896H29.2607V12.9833L30.4012 13.8963C30.6282 14.0732 30.9158 14.1535 31.2016 14.1197C31.4875 14.086 31.7485 13.941 31.9281 13.7161C32.1077 13.4912 32.1914 13.2045 32.1611 12.9183C32.1308 12.6321 31.9889 12.3694 31.7662 12.1871L27.8024 9.01667ZM27.0732 11.2333L18.5507 4.41563C17.9688 3.94986 17.2457 3.69609 16.5003 3.69609C15.755 3.69609 15.0318 3.94986 14.4499 4.41563L5.92741 11.2333V27.9896H11.0316V21.7188C11.0316 20.7504 11.0316 19.9148 11.122 19.2454C11.2182 18.5279 11.4355 17.841 11.9926 17.284C12.5497 16.7269 13.238 16.5096 13.9541 16.4133C14.6234 16.3229 15.4591 16.3229 16.4289 16.3229H16.5718C17.5416 16.3229 18.3772 16.3229 19.0466 16.4133C19.7641 16.5096 20.4509 16.7269 21.008 17.284C21.5651 17.841 21.7824 18.5279 21.8787 19.2454C21.9691 19.9148 21.9691 20.7504 21.9691 21.7202V27.9896H27.0732V11.2333ZM19.7816 27.9896V21.7917C19.7816 20.73 19.7787 20.0417 19.7116 19.5371C19.6474 19.0631 19.5453 18.9144 19.4607 18.8313C19.3776 18.7481 19.2289 18.6446 18.7549 18.5804C18.2489 18.5133 17.562 18.5104 16.5003 18.5104C15.4387 18.5104 14.7503 18.5133 14.2457 18.5804C13.7718 18.6446 13.623 18.7481 13.5399 18.8313C13.4568 18.9144 13.3532 19.0631 13.2891 19.5371C13.222 20.0431 13.2191 20.73 13.2191 21.7917V27.9896H19.7816ZM16.5003 9.03125C16.2609 9.03125 16.0239 9.0784 15.8027 9.17001C15.5816 9.26162 15.3806 9.3959 15.2113 9.56517C15.0421 9.73444 14.9078 9.9354 14.8162 10.1566C14.7246 10.3777 14.6774 10.6148 14.6774 10.8542C14.6774 11.0936 14.7246 11.3306 14.8162 11.5518C14.9078 11.7729 15.0421 11.9739 15.2113 12.1432C15.3806 12.3124 15.5816 12.4467 15.8027 12.5383C16.0239 12.6299 16.2609 12.6771 16.5003 12.6771C16.9838 12.6771 17.4475 12.485 17.7893 12.1432C18.1312 11.8013 18.3232 11.3376 18.3232 10.8542C18.3232 10.3707 18.1312 9.90703 17.7893 9.56517C17.4475 9.22331 16.9838 9.03125 16.5003 9.03125ZM12.4899 10.8542C12.4899 9.79054 12.9124 8.77047 13.6645 8.01837C14.4166 7.26627 15.4367 6.84375 16.5003 6.84375C17.564 6.84375 18.584 7.26627 19.3361 8.01837C20.0882 8.77047 20.5107 9.79054 20.5107 10.8542C20.5107 11.9178 20.0882 12.9379 19.3361 13.69C18.584 14.4421 17.564 14.8646 16.5003 14.8646C15.4367 14.8646 14.4166 14.4421 13.6645 13.69C12.9124 12.9379 12.4899 11.9178 12.4899 10.8542Z" fill="white"/>
</svg>
