<svg width="34" height="34" viewBox="0 0 34 34" fill="none" xmlns="http://www.w3.org/2000/svg">
<path d="M29.7493 15.8439V9.91659C29.7493 9.54086 29.6001 9.18053 29.3344 8.91485C29.0687 8.64917 28.7084 8.49992 28.3327 8.49992H5.66602C5.29029 8.49992 4.92996 8.35066 4.66428 8.08499C4.3986 7.81931 4.24935 7.45898 4.24935 7.08325C4.24935 6.70753 4.3986 6.34719 4.66428 6.08152C4.92996 5.81584 5.29029 5.66659 5.66602 5.66659H28.3327C28.7084 5.66659 29.0687 5.51733 29.3344 5.25165C29.6001 4.98598 29.7493 4.62564 29.7493 4.24992C29.7493 3.8742 29.6001 3.51386 29.3344 3.24818C29.0687 2.98251 28.7084 2.83325 28.3327 2.83325H5.66602C4.53885 2.83325 3.45784 3.28102 2.66081 4.07805C1.86378 4.87508 1.41602 5.95608 1.41602 7.08325V26.9166C1.41602 28.0438 1.86378 29.1248 2.66081 29.9218C3.45784 30.7188 4.53885 31.1666 5.66602 31.1666H28.3327C28.7084 31.1666 29.0687 31.0173 29.3344 30.7517C29.6001 30.486 29.7493 30.1256 29.7493 29.7499V23.8226C30.5775 23.5341 31.2953 22.995 31.8032 22.2802C32.3111 21.5654 32.584 20.7102 32.584 19.8333C32.584 18.9563 32.3111 18.1011 31.8032 17.3863C31.2953 16.6715 30.5775 16.1324 29.7493 15.8439ZM26.916 28.3333H5.66602C5.29029 28.3333 4.92996 28.184 4.66428 27.9183C4.3986 27.6526 4.24935 27.2923 4.24935 26.9166V11.0726C4.70305 11.2404 5.18231 11.3286 5.66602 11.3333H26.916V15.5833H22.666C21.5388 15.5833 20.4578 16.031 19.6608 16.828C18.8638 17.6251 18.416 18.7061 18.416 19.8333C18.416 20.9604 18.8638 22.0414 19.6608 22.8385C20.4578 23.6355 21.5388 24.0833 22.666 24.0833H26.916V28.3333ZM28.3327 21.2499H22.666C22.2903 21.2499 21.93 21.1007 21.6643 20.835C21.3986 20.5693 21.2493 20.209 21.2493 19.8333C21.2493 19.4575 21.3986 19.0972 21.6643 18.8315C21.93 18.5658 22.2903 18.4166 22.666 18.4166H28.3327C28.7084 18.4166 29.0687 18.5658 29.3344 18.8315C29.6001 19.0972 29.7493 19.4575 29.7493 19.8333C29.7493 20.209 29.6001 20.5693 29.3344 20.835C29.0687 21.1007 28.7084 21.2499 28.3327 21.2499Z"/>
</svg>
