<svg width="16" height="12" viewBox="0 0 16 12" fill="none" xmlns="http://www.w3.org/2000/svg">
<path d="M10.6665 0.666748C11.0345 0.666748 11.3332 0.965415 11.3332 1.33341V4.13341L14.8085 1.70008C14.9592 1.59475 15.1672 1.63141 15.2732 1.78275C15.3118 1.83875 15.3332 1.90541 15.3332 1.97341V10.0267C15.3332 10.2107 15.1838 10.3601 14.9998 10.3601C14.9312 10.3601 14.8645 10.3387 14.8085 10.3001L11.3332 7.86675V10.6667C11.3332 11.0347 11.0345 11.3334 10.6665 11.3334H1.33317C0.965171 11.3334 0.666504 11.0347 0.666504 10.6667V1.33341C0.666504 0.965415 0.965171 0.666748 1.33317 0.666748H10.6665ZM9.99984 2.00008H1.99984V10.0001H9.99984V2.00008ZM5.99984 3.33341L8.6665 6.00008H6.6665V8.66675H5.33317V6.00008H3.33317L5.99984 3.33341ZM13.9998 3.89408L11.3332 5.76075V6.23941L13.9998 8.10608V3.89341V3.89408Z" fill="white"/>
</svg>
