<svg width="34" height="34" viewBox="0 0 34 34" fill="none" xmlns="http://www.w3.org/2000/svg">
<rect x="0.5" y="0.5" width="33" height="33" stroke="#00193B"/>
<path fill-rule="evenodd" clip-rule="evenodd" d="M12.2194 5.45833C13.2252 3.88016 14.9904 2.83325 17.0007 2.83325C19.0109 2.83325 20.7761 3.88016 21.7819 5.45833C23.608 5.05316 25.597 5.56175 27.0179 6.98267C28.4388 8.405 28.9474 10.3926 28.5422 12.2201C30.1204 13.2259 31.1673 14.9911 31.1673 16.9999C31.1673 19.0102 30.1204 20.7753 28.5422 21.7812C28.9474 23.6087 28.4388 25.5963 27.0179 27.0172C25.597 28.4395 23.608 28.9467 21.7819 28.5429C20.7761 30.1211 19.0109 31.1666 17.0007 31.1666C14.9904 31.1666 13.2252 30.1211 12.2194 28.5429C10.3919 28.9467 8.40432 28.4395 6.9834 27.0172C5.56249 25.5963 5.05391 23.6087 5.45766 21.7812C3.88091 20.7753 2.83398 19.0102 2.83398 16.9999C2.83398 14.9911 3.88091 13.2259 5.45766 12.2201C5.05391 10.3926 5.56249 8.405 6.9834 6.98267C8.40432 5.56175 10.3919 5.05316 12.2194 5.45833ZM12.2945 8.47441C12.6657 8.66708 13.1034 8.68549 13.4902 8.5254C13.8769 8.36532 14.173 8.04233 14.2991 7.64425C14.6617 6.49816 15.7342 5.66659 17.0007 5.66659C18.2672 5.66659 19.3396 6.49816 19.7023 7.64425C19.8283 8.04233 20.1244 8.36532 20.5112 8.5254C20.8979 8.68549 21.3342 8.66708 21.7054 8.47441C22.7736 7.92049 24.1194 8.09049 25.0148 8.98724C25.9101 9.88258 26.0815 11.2284 25.5276 12.2952C25.3349 12.6663 25.3151 13.1041 25.4752 13.4894C25.6353 13.8762 25.9582 14.1723 26.3563 14.2983C27.5038 14.661 28.334 15.7334 28.334 16.9999C28.334 18.2664 27.5038 19.3402 26.3563 19.7029C25.9582 19.829 25.6353 20.1251 25.4752 20.5104C25.3151 20.8972 25.3349 21.3349 25.5276 21.7061C26.0815 22.7728 25.9101 24.1187 25.0148 25.014C24.1194 25.9093 22.7736 26.0807 21.7054 25.5268C21.3342 25.3342 20.8979 25.3158 20.5112 25.4758C20.1244 25.6359 19.8283 25.9589 19.7023 26.357C19.3396 27.5031 18.2672 28.3333 17.0007 28.3333C15.7342 28.3333 14.6617 27.5031 14.2991 26.357C14.173 25.9589 13.8769 25.6359 13.4902 25.4758C13.1034 25.3158 12.6657 25.3342 12.2945 25.5268C11.2277 26.0807 9.8819 25.9093 8.98657 25.014C8.09124 24.1187 7.91982 22.7728 8.47374 21.7061C8.66641 21.3349 8.68483 20.8972 8.52616 20.5104C8.36608 20.1251 8.04307 19.829 7.64357 19.7029C6.49749 19.3402 5.66732 18.2664 5.66732 16.9999C5.66732 15.7334 6.49749 14.661 7.64357 14.2983C8.04307 14.1723 8.36608 13.8762 8.52616 13.4894C8.68483 13.1041 8.66641 12.6663 8.47374 12.2952C7.91982 11.2284 8.09124 9.88258 8.98657 8.98724C9.8819 8.09049 11.2277 7.92049 12.2945 8.47441ZM17.0007 11.3333C13.8727 11.3333 11.334 13.8733 11.334 16.9999C11.334 20.1279 13.8727 22.6666 17.0007 22.6666C20.1287 22.6666 22.6673 20.1279 22.6673 16.9999C22.6673 13.8733 20.1287 11.3333 17.0007 11.3333ZM17.0007 14.1666C18.5647 14.1666 19.834 15.4373 19.834 16.9999C19.834 18.5639 18.5647 19.8333 17.0007 19.8333C15.4367 19.8333 14.1673 18.5639 14.1673 16.9999C14.1673 15.4373 15.4367 14.1666 17.0007 14.1666Z"/>
</svg>
