<svg width="56" height="56" viewBox="0 0 56 56" fill="none" xmlns="http://www.w3.org/2000/svg">
<circle cx="28" cy="28" r="28" fill="white"/>
<g clip-path="url(#clip0_323_56)">
<path d="M37 31V34H40V36H37V39H35V36H32V34H35V31H37ZM37.008 19C37.556 19 38 19.445 38 19.993V29H36V21H20V34.999L30 25L33 28V30.829L30 27.829L22.827 35H30V37H18.992C18.7288 36.9997 18.4765 36.895 18.2905 36.7088C18.1045 36.5226 18 36.2702 18 36.007V19.993C18.0018 19.7304 18.1069 19.479 18.2925 19.2932C18.4781 19.1074 18.7294 19.0021 18.992 19H37.008ZM24 23C24.5304 23 25.0391 23.2107 25.4142 23.5858C25.7893 23.9609 26 24.4696 26 25C26 25.5304 25.7893 26.0391 25.4142 26.4142C25.0391 26.7893 24.5304 27 24 27C23.4696 27 22.9609 26.7893 22.5858 26.4142C22.2107 26.0391 22 25.5304 22 25C22 24.4696 22.2107 23.9609 22.5858 23.5858C22.9609 23.2107 23.4696 23 24 23Z" fill="#D9444D"/>
</g>
<defs>
<clipPath id="clip0_323_56">
<rect width="24" height="24" fill="white" transform="translate(16 16)"/>
</clipPath>
</defs>
</svg>
