<svg width="24" height="24" viewBox="0 0 24 24" fill="none" xmlns="http://www.w3.org/2000/svg">
<path d="M16.3725 3H17.625C18.3212 3 18.9889 3.27656 19.4812 3.76885C19.9734 4.26113 20.25 4.92881 20.25 5.625V11.8905C20.0819 11.6672 19.8659 11.4844 19.6178 11.3558L19.431 11.2582C17.2988 10.1482 14.7315 11.5605 14.5118 13.9395C14.1361 14.041 13.8013 14.2569 13.5538 14.5571C13.3063 14.8573 13.1583 15.2271 13.1303 15.6152C13.1022 16.0033 13.1956 16.3905 13.3975 16.7232C13.5993 17.0559 13.8996 17.3176 14.2568 17.472L14.0438 20.4338C13.7415 20.3421 13.421 20.3283 13.112 20.3936C12.803 20.4589 12.5154 20.6012 12.2761 20.8073C12.0368 21.0134 11.8534 21.2767 11.743 21.5726C11.6326 21.8685 11.5987 22.1875 11.6445 22.5H6.375C5.67881 22.5 5.01113 22.2234 4.51884 21.7312C4.02656 21.2389 3.75 20.5712 3.75 19.875V5.625C3.75 4.92881 4.02656 4.26113 4.51884 3.76885C5.01113 3.27656 5.67881 3 6.375 3H7.6275C7.78276 2.56119 8.07024 2.18132 8.45036 1.91268C8.83048 1.64404 9.28454 1.49987 9.75 1.5H14.25C15.2295 1.5 16.0635 2.12625 16.3725 3ZM14.25 3H9.75C9.55109 3 9.36032 3.07902 9.21967 3.21967C9.07902 3.36032 9 3.55109 9 3.75C9 3.94891 9.07902 4.13968 9.21967 4.28033C9.36032 4.42098 9.55109 4.5 9.75 4.5H14.25C14.4489 4.5 14.6397 4.42098 14.7803 4.28033C14.921 4.13968 15 3.94891 15 3.75C15 3.55109 14.921 3.36032 14.7803 3.21967C14.6397 3.07902 14.4489 3 14.25 3ZM18.9113 12.2565C17.4765 11.5095 15.7448 12.4762 15.6285 14.091L15.5625 15H15C14.8011 15 14.6103 15.079 14.4697 15.2197C14.329 15.3603 14.25 15.5511 14.25 15.75C14.25 15.9489 14.329 16.1397 14.4697 16.2803C14.6103 16.421 14.8011 16.5 15 16.5H15.4545L15.1275 21.0495C15.1186 21.1736 15.079 21.2935 15.0122 21.3984C14.9454 21.5034 14.8536 21.5901 14.745 21.6507C14.6364 21.7113 14.5144 21.744 14.39 21.7457C14.2656 21.7475 14.1428 21.7183 14.0325 21.6608L13.8465 21.5632C13.7591 21.5177 13.6637 21.4899 13.5655 21.4813C13.4674 21.4727 13.3686 21.4835 13.2746 21.5131C13.1807 21.5427 13.0935 21.5905 13.018 21.6538C12.9425 21.7171 12.8803 21.7946 12.8348 21.882C12.7892 21.9694 12.7614 22.0648 12.7528 22.163C12.7442 22.2611 12.755 22.3599 12.7846 22.4539C12.8142 22.5478 12.862 22.635 12.9253 22.7105C12.9886 22.786 13.0661 22.8482 13.1535 22.8937L13.3403 22.9913C14.7758 23.7383 16.5068 22.7715 16.623 21.1567L16.959 16.5H18C18.1989 16.5 18.3897 16.421 18.5303 16.2803C18.671 16.1397 18.75 15.9489 18.75 15.75C18.75 15.5511 18.671 15.3603 18.5303 15.2197C18.3897 15.079 18.1989 15 18 15H17.067L17.1248 14.1982C17.1337 14.0743 17.1733 13.9545 17.2401 13.8496C17.3068 13.7448 17.3985 13.6582 17.507 13.5975C17.6156 13.5369 17.7374 13.5042 17.8617 13.5024C17.986 13.5006 18.1087 13.5296 18.219 13.587L18.405 13.6845C18.4924 13.73 18.5878 13.7579 18.686 13.7665C18.7841 13.7751 18.8829 13.7643 18.9769 13.7347C19.0708 13.7051 19.158 13.6573 19.2335 13.594C19.309 13.5307 19.3712 13.4531 19.4168 13.3657C19.4623 13.2784 19.4901 13.1829 19.4987 13.0848C19.5073 12.9867 19.4965 12.8878 19.4669 12.7939C19.4373 12.6999 19.3895 12.6127 19.3262 12.5372C19.2629 12.4618 19.1854 12.3995 19.098 12.354L18.9113 12.2565ZM23.0273 18.5303C23.0989 18.4611 23.156 18.3783 23.1953 18.2868C23.2346 18.1953 23.2553 18.0969 23.2562 17.9973C23.2571 17.8977 23.2381 17.799 23.2004 17.7068C23.1627 17.6146 23.107 17.5309 23.0365 17.4605C22.9661 17.39 22.8824 17.3343 22.7902 17.2966C22.698 17.2589 22.5993 17.2399 22.4997 17.2408C22.4001 17.2417 22.3017 17.2624 22.2102 17.3017C22.1187 17.341 22.0359 17.3981 21.9668 17.4697L20.7578 18.678L20.271 17.8958C20.1721 17.7367 20.0415 17.5996 19.8874 17.4931C19.7333 17.3865 19.559 17.3129 19.3752 17.2766C19.1914 17.2403 19.0021 17.2422 18.8191 17.2821C18.6361 17.322 18.4632 17.3992 18.3113 17.5087C18.159 17.6175 18.0529 17.7793 18.0138 17.9623C17.9748 18.1453 18.0055 18.3363 18.1 18.4978C18.1945 18.6593 18.346 18.7796 18.5247 18.8352C18.7033 18.8907 18.8963 18.8775 19.0658 18.798L19.6688 19.7677L18.2198 21.2167C18.0791 21.3575 18.0002 21.5483 18.0002 21.7473C18.0003 21.9462 18.0794 22.137 18.2201 22.2776C18.3609 22.4183 18.5517 22.4972 18.7506 22.4972C18.9496 22.4971 19.1404 22.418 19.281 22.2772L20.4825 21.075L20.97 21.8587C21.0703 22.02 21.2032 22.1586 21.3601 22.2654C21.5171 22.3723 21.6947 22.4452 21.8815 22.4794C22.0683 22.5136 22.2602 22.5083 22.4449 22.4639C22.6295 22.4196 22.8029 22.3371 22.9538 22.2218C23.1018 22.109 23.2027 21.9453 23.2368 21.7624C23.2708 21.5795 23.2357 21.3904 23.1382 21.2319C23.0407 21.0735 22.8878 20.9569 22.7091 20.9049C22.5304 20.8529 22.3388 20.8691 22.1715 20.9505L21.5715 19.986L23.0273 18.5303Z" fill="black"/>
</svg>
